<?xml version="1.0" encoding="UTF-8"?>
<svg width="37px" height="37px" viewBox="0 0 37 37" version="1.1" xmlns="http://www.w3.org/2000/svg" xmlns:xlink="http://www.w3.org/1999/xlink">
    <!-- Generator: Sketch 52.4 (67378) - http://www.bohemiancoding.com/sketch -->
    <title>Group 2 Copy</title>
    <desc>Created with Sketch.</desc>
    <g id="Symbols" stroke="none" stroke-width="1" fill="none" fill-rule="evenodd">
        <g id="Hero" transform="translate(-32.000000, -21.000000)">
            <g id="Group-2-Copy" transform="translate(32.000000, 21.000000)">
                <g id="Group-5">
                    <rect id="Rectangle" fill="#000000" x="0" y="0" width="36.782424" height="36.782424" rx="8.848602"></rect>
                    <g id="Group-6" transform="translate(5.552064, 9.195606)" fill="#FCFCFC">
                        <g id="Group-4">
                            <path d="M5.64488757,3.59724299 C6.44126573,3.59724299 7.14654431,3.76250199 7.76074446,4.09302495 C8.37494461,4.42354792 8.86942037,4.86467234 9.24418656,5.41641146 C9.61895275,5.96815058 9.84016559,6.574534 9.90783171,7.23557993 L8.36973648,7.23557993 C8.2864551,6.79314762 8.12770236,6.392362 7.89347349,6.03321107 C7.65924462,5.67406013 7.35214915,5.3877847 6.97217787,5.17437617 C6.59220659,4.96096764 6.13676839,4.85426498 5.60584962,4.85426498 C4.92398335,4.85426498 4.34752872,5.01431897 3.87646844,5.33443176 C3.40540815,5.65454455 3.04886511,6.14771906 2.80682861,6.81397007 C2.5647921,7.48022108 2.44377567,8.33384238 2.44377567,9.37485959 C2.44377567,10.9467956 2.71313483,12.1010061 3.25186123,12.8375258 C3.79058764,13.5740454 4.57524259,13.9422997 5.60584962,13.9422997 C6.13676839,13.9422997 6.59220659,13.8303921 6.97217787,13.6065734 C7.35214915,13.3827547 7.65924462,13.0834667 7.89347349,12.7087005 C8.12770236,12.3339343 8.2864551,11.9279437 8.36973648,11.4907165 L9.90783171,11.4907165 C9.85057576,11.9695844 9.72175182,12.4315288 9.52135601,12.8765637 C9.32096019,13.3215986 9.04639602,13.7184804 8.69765526,14.0672212 C8.3489145,14.4159619 7.92080259,14.6918274 7.41330671,14.8948257 C6.90581082,15.0978241 6.31634367,15.1993217 5.64488757,15.1993217 C4.6298958,15.1993217 3.76456322,14.9676989 3.0488639,14.5044462 C2.33316457,14.0411936 1.78663873,13.3749525 1.40927,12.5057032 C1.03190126,11.6364538 0.84321972,10.5876447 0.84321972,9.35924441 C0.84321972,8.13604919 1.03060001,7.0950476 1.4053662,6.23620841 C1.78013239,5.37736921 2.32535698,4.72283947 3.04105631,4.27259952 C3.75675563,3.82235958 4.62469071,3.59724299 5.64488757,3.59724299 Z M11.9456127,15.0431699 L11.9456127,3.44109119 L13.3509789,3.44109119 L13.3509789,8.15687555 C13.4863111,7.93305685 13.6684864,7.72355528 13.8975102,7.52836455 C14.126534,7.33317383 14.4050019,7.17442109 14.7329223,7.05210156 C15.0608427,6.92978204 15.4408083,6.8686232 15.8728305,6.8686232 C16.3985442,6.8686232 16.8748024,6.9662171 17.3016194,7.16140782 C17.7284365,7.35659855 18.066762,7.63376522 18.3166061,7.99291616 C18.5664503,8.35206709 18.6913705,8.77887775 18.6913705,9.27336092 L18.6913705,15.0431699 L17.2469663,15.0431699 L17.2469663,9.56224175 C17.2469663,9.07816875 17.0817073,8.70470943 16.7511843,8.44185258 C16.4206614,8.17899574 15.989947,8.04756929 15.4590282,8.04756929 C15.0998773,8.04756929 14.7615517,8.10612563 14.4440415,8.22324006 C14.1265313,8.3403545 13.8701846,8.51732477 13.6749939,8.75415618 C13.4798032,8.9909876 13.3822093,9.29157681 13.3822093,9.65593283 L13.3822093,15.0431699 L11.9456127,15.0431699 Z M20.947764,15.0431699 L20.947764,6.97012187 L22.3218998,6.97012187 L22.3218998,8.52383228 C22.457232,8.13865591 22.6472148,7.81984918 22.8918539,7.5674025 C23.1364929,7.31495583 23.4162621,7.12627429 23.7311698,7.00135223 C24.0460775,6.87643016 24.3726918,6.81397007 24.7110224,6.81397007 C24.8307393,6.81397007 24.947852,6.82177758 25.0623639,6.83739284 C25.1768758,6.8530081 25.2653609,6.87903314 25.327822,6.91546874 L25.327822,8.31302735 C25.2497457,8.27659175 25.1495493,8.25186796 25.0272297,8.23885524 C24.9049102,8.22584253 24.8021113,8.21933627 24.7188299,8.21933627 C24.3961146,8.19851592 24.0942241,8.2180347 23.8131495,8.27789319 C23.5320749,8.33775168 23.284837,8.44055059 23.0714285,8.586293 C22.8580199,8.73203541 22.6901584,8.92331945 22.5678389,9.16015086 C22.4455194,9.39698228 22.3843605,9.68455897 22.3843605,10.0228896 L22.3843605,15.0431699 L20.947764,15.0431699 Z" id="Chr"></path>
                        </g>
                    </g>
                </g>
            </g>
        </g>
    </g>
</svg>